<?xml version="1.0" encoding="utf-8"?>
<!-- Generator: Adobe Illustrator 18.0.0, SVG Export Plug-In . SVG Version: 6.00 Build 0)  -->
<!DOCTYPE svg PUBLIC "-//W3C//DTD SVG 1.1//EN" "http://www.w3.org/Graphics/SVG/1.1/DTD/svg11.dtd">
<svg version="1.1" id="Layer_1" xmlns="http://www.w3.org/2000/svg" xmlns:xlink="http://www.w3.org/1999/xlink" x="0px" y="0px"
	 viewBox="0 0 20 20" enable-background="new 0 0 20 20" xml:space="preserve">
<g>
	<path fill="#DB4A38" d="M8.3,11.2c-1.2,0-2.2,0.7-2.2,1.6c0,0.9,0.9,1.6,2,1.6c1.7,0,2.2-0.7,2.2-1.6c0-0.1,0-0.2,0-0.3
		c-0.1-0.5-0.6-0.8-1.3-1.2C8.9,11.3,8.6,11.2,8.3,11.2z"/>
	<path fill="#DB4A38" d="M0,0v20h20V0H0z M10.8,7.3c0,0.7-0.4,1.2-0.9,1.6C9.4,9.3,9.3,9.5,9.3,9.8c0,0.3,0.6,0.7,0.9,0.9
		c1,0.7,1.1,1.2,1.1,2.1c0,1.1-1.2,2.2-3.1,2.2C6.5,15,5,14.3,5,13.2c0-1.1,1.2-2.3,2.9-2.3c0.2,0,0.4,0,0.5,0
		C8.2,10.6,8,10.4,8,10.1c0-0.2,0.1-0.4,0.2-0.6c-0.1,0-0.2,0-0.3,0c-1.4,0-2.2-1-2.2-2.2C5.7,6.1,6.9,5,8.4,5c0.8,0,2.9,0,2.9,0
		l-0.7,0.7H9.9C10.5,6,10.8,6.6,10.8,7.3z M15,7.2h-1.4v1.4H13V7.2h-1.4V6.5H13V5.1h0.7v1.4H15V7.2z"/>
	<path fill="#DB4A38" d="M8,5.5c-0.8,0-1.3,0.8-1.2,1.8c0.1,1,0.9,1.8,1.7,1.8c0.8,0,1.2-0.6,1.1-1.7C9.5,6.3,8.8,5.5,8,5.5z"/>
</g>
</svg>
